<svg id="441da588-37cd-403b-a61b-4b1596f56057" xmlns="http://www.w3.org/2000/svg" viewBox="0 0 602.06 242.19"><title>planet</title><path d="M22.52,13.71H153.33v4.42H27.24V86.66h120.7V91H27.24V166.2H154.76v4.38H22.52V13.71Z" transform="translate(-22.52 -10.2)" style="fill:#fff"/><path d="M180.66,13.71h4.71V166.2H298.53v4.38H180.66V13.71Z" transform="translate(-22.52 -10.2)" style="fill:#fff"/><path d="M381.77,10.2c48,0,87.06,30.1,87.06,81.94s-39.06,82-87.06,82-87-30.11-87-82S333.76,10.2,381.77,10.2Zm0,159.5c43.75,0,82.34-27.24,82.34-77.56s-38.59-77.56-82.34-77.56-82.36,27.25-82.36,77.56S338,169.7,381.77,169.7Z" transform="translate(-22.52 -10.2)" style="fill:#fff"/><path d="M615.62,57.67c-2.09-26.6-17.88-43.08-63.27-43.08-37.19,0-58.59,10.34-58.59,36.26,0,15.17,7.76,25.89,36,31.64l56.48,11.43c25.88,5.26,38.35,16.69,38.35,36,0,17.58-9,44.17-66.82,44.17-66.6,0-74.14-32.75-74.62-55.14h4.72c0.49,39.54,30.38,50.74,70.84,50.74,49.87,0,61.16-21.74,61.16-39.33,0-17.12-10.58-27.46-36.21-32.51L530.47,87.32c-27.78-5.5-41.41-15.39-41.41-36.92,0-25.48,19.52-40.21,62.1-40.21,56,0,67.52,23.29,69.18,47.47h-4.72Z" transform="translate(-22.52 -10.2)" style="fill:#fff"/><path d="M148,197.61c4.48,0,6.91.51,9.15,2,3.07,2,4.8,5.57,4.8,9.79,0,7.49-5,12-13.25,12H134v18.94h-2.62V197.61H148Zm-14,21.5H147.2c4,0,5.7-.32,7.62-1.41a8.94,8.94,0,0,0,4.48-8.19c0-3.52-1.34-6.33-3.84-8-1.86-1.28-3.71-1.66-7.94-1.66H134v19.26Z" transform="translate(-22.52 -10.2)" style="fill:#fff"/><path d="M169.29,240.29h-2.43V197.61h2.43v42.68Z" transform="translate(-22.52 -10.2)" style="fill:#fff"/><path d="M202.69,240.1a5.11,5.11,0,0,1-2.11.38c-1.73,0-2.82-.45-3.33-1.47s-0.58-1.54-.58-5.25c-2.56,5.12-6.27,7.42-12,7.42-6.4,0-10.18-3.2-10.18-8.58a8.24,8.24,0,0,1,5.76-8.19c2.37-.9,2.69-1,11.9-1.73,3.46-.32,4.35-1.15,4.35-4.1,0-2.75-.51-4.29-1.73-5.44-1.47-1.47-4-2.3-7-2.3-5.76,0-8.77,2.69-9.28,8.19H176.2c0.45-6.66,4.67-10.3,12-10.3,4.8,0,8.64,1.79,10,4.67,0.7,1.6.77,2,.77,8.06v13.76c0,2.37.51,3.14,2.18,3.14a5.4,5.4,0,0,0,1.54-.26v2Zm-6.14-17.21c-0.83,1-2.75,1.6-6.91,2-5.38.58-7,.9-9.09,1.79a6,6,0,0,0-3.65,5.63c0,4.16,3.14,6.85,8,6.85,6.78,0,11.65-4.54,11.65-10.81v-5.44Z" transform="translate(-22.52 -10.2)" style="fill:#fff"/><path d="M208.84,216.3c2.11-5.06,5.76-7.55,11.26-7.55a10.75,10.75,0,0,1,8.77,3.9c1.54,2,2,3.9,2,8.06v19.58h-2.43v-19c0-3.14-.26-4.67-1-6.14-1.28-2.62-4.29-4.29-7.87-4.29a10,10,0,0,0-9,5c-1.22,2.18-1.66,4.48-1.66,8.51v15.93h-2.5V209.64h2.43v6.66Z" transform="translate(-22.52 -10.2)" style="fill:#fff"/><path d="M263.81,229.8c-1.28,7.17-6.08,11.39-13.06,11.39-8.51,0-14-6.33-14-16s5.7-16.45,14-16.45A12.61,12.61,0,0,1,262.34,216c1.28,2.5,1.79,5.18,1.79,9.34H239.24c0.06,8.64,4.35,13.76,11.52,13.76,5.63,0,9.47-3.39,10.62-9.28h2.43Zm-2.18-6.59c-0.13-3.46-.64-5.31-2-7.42a10.41,10.41,0,0,0-9-4.93,10.85,10.85,0,0,0-9.41,5.25c-1.22,2-1.66,3.78-2,7.1h22.4Z" transform="translate(-22.52 -10.2)" style="fill:#fff"/><path d="M279,211.75h-6.66v20.73c0,2.5.13,3.52,0.51,4.22,0.51,1.09,1.79,1.66,3.52,1.66a11.06,11.06,0,0,0,2.62-.32v2.18a18.23,18.23,0,0,1-2.94.26c-2.75,0-4.54-.77-5.38-2.37C270.08,237,270,236,270,231.53V211.75h-5.57v-2.11H270V200h2.43v9.6H279v2.11Z" transform="translate(-22.52 -10.2)" style="fill:#fff"/><path d="M327.55,240.29h-7.17l0.32-34.56-12.16,34.56h-6.08l-12.42-33.92,0.32,33.92H283.2V197.61h10.5L305.6,231l11.46-33.41h10.5v42.68Z" transform="translate(-22.52 -10.2)" style="fill:#fff"/><path d="M333.51,219c0.58-6.91,5.18-10.43,13.5-10.43,5.31,0,9.47,1.47,11.39,4,1.09,1.34,1.47,2.94,1.47,5.76,0,0.83,0,.83-0.06,4.16-0.06,1-.06,2.75-0.13,5.31-0.06,2-.06,3.39-0.06,3.58,0,4,.13,4.42,1.73,4.42a8.35,8.35,0,0,0,1.54-.13v4.8a17.06,17.06,0,0,1-4.42.7c-2.94,0-4.61-1.22-5-3.71-2.94,2.56-6.33,3.71-10.94,3.71-6.33,0-10.37-3.58-10.37-9.21a8.21,8.21,0,0,1,3.14-6.78c2.3-1.73,3.39-2,10.69-2.88,6.53-.83,7.17-1.15,7.17-4,0-3.14-2-4.67-6.4-4.67s-6.27,1.47-6.85,5.38h-6.4Zm19.58,5.89c-1.66.9-2.43,1.09-7.23,1.73-3.14.38-4.54,0.9-5.5,1.86a4.43,4.43,0,0,0-1.28,3.26c0,2.94,2,4.61,5.63,4.61,3.33,0,6.46-1.34,7.68-3.26,0.58-1,.7-1.73.7-4.54v-3.65Z" transform="translate(-22.52 -10.2)" style="fill:#fff"/><path d="M372.42,213.93c2.82-3.78,5.82-5.37,10.3-5.37,3.9,0,7.36,1.66,9,4.35,1.15,1.86,1.54,3.78,1.54,7.68v19.71h-6.85v-18a13.61,13.61,0,0,0-.58-5.06c-0.7-1.86-2.75-3-5.31-3a7.08,7.08,0,0,0-6.66,4c-0.7,1.54-1,3.33-1,6.59v15.49H366V209.38h6.4v4.54Z" transform="translate(-22.52 -10.2)" style="fill:#fff"/><path d="M398.72,219c0.58-6.91,5.18-10.43,13.5-10.43,5.31,0,9.47,1.47,11.39,4,1.09,1.34,1.47,2.94,1.47,5.76,0,0.83,0,.83-0.06,4.16-0.06,1-.06,2.75-0.13,5.31-0.06,2-.06,3.39-0.06,3.58,0,4,.13,4.42,1.73,4.42a8.35,8.35,0,0,0,1.54-.13v4.8a17.06,17.06,0,0,1-4.42.7c-2.94,0-4.61-1.22-5-3.71-2.94,2.56-6.33,3.71-10.94,3.71-6.33,0-10.37-3.58-10.37-9.21a8.21,8.21,0,0,1,3.14-6.78c2.3-1.73,3.39-2,10.69-2.88,6.53-.83,7.17-1.15,7.17-4,0-3.14-2-4.67-6.4-4.67s-6.27,1.47-6.85,5.38h-6.4Zm19.58,5.89c-1.66.9-2.43,1.09-7.23,1.73-3.14.38-4.54,0.9-5.5,1.86a4.43,4.43,0,0,0-1.28,3.26c0,2.94,2,4.61,5.63,4.61,3.33,0,6.46-1.34,7.68-3.26,0.58-1,.7-1.73.7-4.54v-3.65Z" transform="translate(-22.52 -10.2)" style="fill:#fff"/><path d="M459.78,236.71c0,5.06-.51,7.55-2,10-2.3,3.78-6.66,5.7-12.86,5.7-8.38,0-13.06-3.14-13.89-9.47h6.91c0.64,3.14,2.88,4.61,7.17,4.61,5.63,0,8.13-2.75,8.13-9.09v-3.65c-2.18,3.52-5.31,5.18-9.79,5.18-8.19,0-13.44-6-13.44-15.42,0-9.6,5.5-16,13.82-16,4.29,0,7.1,1.54,9.6,5.18v-4.35h6.4v27.33ZM436.87,224.1c0,6.53,3.07,10.43,8.06,10.43s8.26-4,8.26-10.43c0-6.21-3.14-10.11-8.06-10.11C440,214,436.87,217.83,436.87,224.1Z" transform="translate(-22.52 -10.2)" style="fill:#fff"/><path d="M493.83,230.63c-1.6,6.59-6.85,10.5-14,10.5-9.15,0-15.23-6.4-15.23-15.93s6.27-16.64,15-16.64a13.73,13.73,0,0,1,13.06,8.38,21.67,21.67,0,0,1,1.6,9.54H471.36c0.26,6.14,3.26,9.6,8.58,9.6,3.71,0,6-1.66,7.36-5.44h6.53Zm-6.4-8.7c-0.45-5.12-3.46-8.32-7.94-8.32s-7.3,2.94-8,8.32h15.94Z" transform="translate(-22.52 -10.2)" style="fill:#fff"/><path d="M517,215.34a21.11,21.11,0,0,0-2.43-.19,8.31,8.31,0,0,0-6,2.3c-2.18,2.11-2.82,4.48-2.82,10.43v12.42h-6.85V209.38h6.4v6.14c2.5-4.74,5.63-6.85,10.5-6.85a10.75,10.75,0,0,1,1.22.06v6.59Z" transform="translate(-22.52 -10.2)" style="fill:#fff"/></svg>
